<svg width="40" height="40" viewBox="0 0 40 40" fill="none" xmlns="http://www.w3.org/2000/svg">
<path fill-rule="evenodd" clip-rule="evenodd" d="M16.875 2.5C13.0625 2.5 9.4062 4.0145 6.71036 6.71034C4.01453 9.40618 2.50002 13.0625 2.50002 16.875V18.17C1.73999 18.6089 1.10885 19.24 0.670054 20.0001C0.231253 20.7602 0.000244141 21.6224 0.000244141 22.5C0.000244141 23.3776 0.231253 24.2398 0.670054 24.9999C1.10885 25.76 1.73999 26.3911 2.50002 26.83V30.625C2.50002 32.4484 3.22435 34.197 4.51367 35.4864C5.80298 36.7757 7.55166 37.5 9.37502 37.5H30.625C32.4484 37.5 34.1971 36.7757 35.4864 35.4864C36.7757 34.197 37.5 32.4484 37.5 30.625V26.83C38.2601 26.3911 38.8912 25.76 39.33 24.9999C39.7688 24.2398 39.9998 23.3776 39.9998 22.5C39.9998 21.6224 39.7688 20.7602 39.33 20.0001C38.8912 19.24 38.2601 18.6089 37.5 18.17V16.875C37.5 13.0625 35.9855 9.40618 33.2897 6.71034C30.5938 4.0145 26.9375 2.5 23.125 2.5H16.875ZM35 21.25H5.00002C4.6685 21.25 4.35056 21.3817 4.11614 21.6161C3.88172 21.8505 3.75002 22.1685 3.75002 22.5C3.75002 22.8315 3.88172 23.1495 4.11614 23.3839C4.35056 23.6183 4.6685 23.75 5.00002 23.75H35C35.3315 23.75 35.6495 23.6183 35.8839 23.3839C36.1183 23.1495 36.25 22.8315 36.25 22.5C36.25 22.1685 36.1183 21.8505 35.8839 21.6161C35.6495 21.3817 35.3315 21.25 35 21.25ZM33.75 17.5V16.875C33.75 14.0571 32.6306 11.3546 30.638 9.36199C28.6455 7.36942 25.943 6.25 23.125 6.25H16.875C14.0571 6.25 11.3546 7.36942 9.36201 9.36199C7.36944 11.3546 6.25002 14.0571 6.25002 16.875V17.5H33.75ZM27.5 27.5H33.75V30.625C33.75 32.35 32.35 33.75 30.625 33.75H9.37502C7.65002 33.75 6.25002 32.35 6.25002 30.625V27.5H22.5L25 30L27.5 27.5Z" fill="#333333"/>
</svg>
