<svg width="40" height="40" viewBox="0 0 40 40" fill="none" xmlns="http://www.w3.org/2000/svg">
<path d="M5 16.25V14.375C4.99993 13.5548 5.17924 12.7445 5.52534 12.0009C5.87145 11.2573 6.37599 10.5984 7.0036 10.0704C7.63121 9.54231 8.3667 9.1579 9.15854 8.94407C9.95038 8.73024 10.7794 8.69216 11.5875 8.83251C12.1135 7.00775 13.2185 5.40348 14.7359 4.26165C16.2534 3.11983 18.1009 2.50235 20 2.50235C21.8991 2.50235 23.7466 3.11983 25.2641 4.26165C26.7815 5.40348 27.8865 7.00775 28.4125 8.83251C29.2206 8.69216 30.0496 8.73024 30.8415 8.94407C31.6333 9.1579 32.3688 9.54231 32.9964 10.0704C33.624 10.5984 34.1285 11.2573 34.4747 12.0009C34.8208 12.7445 35.0001 13.5548 35 14.375V16.25C35.0005 20.0122 33.5873 23.6373 31.0404 26.4064C28.4936 29.1755 24.9991 30.8865 21.25 31.2V35H18.75V31.2C15.0009 30.8865 11.5064 29.1755 8.95956 26.4064C6.41272 23.6373 4.99945 20.0122 5 16.25ZM16.215 14.9975H23.785C23.6739 14.0069 23.8283 13.0046 24.2325 12.0934C24.6367 11.1822 25.2761 10.395 26.085 9.81251C25.7612 8.44191 24.9842 7.22078 23.8798 6.34689C22.7754 5.473 21.4083 4.99755 20 4.99755C18.5917 4.99755 17.2246 5.473 16.1202 6.34689C15.0158 7.22078 14.2388 8.44191 13.915 9.81251C14.7243 10.3952 15.3639 11.1828 15.7682 12.0945C16.1724 13.0062 16.3266 14.009 16.215 15V14.9975ZM13.3675 14.9975C13.4602 14.586 13.4591 14.1588 13.3644 13.7478C13.2697 13.3367 13.0836 12.9522 12.8202 12.6228C12.5567 12.2933 12.2225 12.0274 11.8422 11.8446C11.462 11.6618 11.0456 11.567 10.6237 11.567C10.2019 11.567 9.78545 11.6618 9.40525 11.8446C9.02505 12.0274 8.69083 12.2933 8.42734 12.6228C8.16385 12.9522 7.97785 13.3367 7.8831 13.7478C7.78836 14.1588 7.7873 14.586 7.88 14.9975H13.3675ZM26.6325 14.9975H32.1175C32.2102 14.586 32.2091 14.1588 32.1144 13.7478C32.0197 13.3367 31.8336 12.9522 31.5702 12.6228C31.3067 12.2933 30.9725 12.0274 30.5923 11.8446C30.212 11.6618 29.7956 11.567 29.3738 11.567C28.9519 11.567 28.5355 11.6618 28.1553 11.8446C27.775 12.0274 27.4408 12.2933 27.1773 12.6228C26.9139 12.9522 26.7278 13.3367 26.6331 13.7478C26.5384 14.1588 26.5373 14.586 26.63 14.9975H26.6325ZM20 28.75C23.0992 28.75 26.0879 27.5986 28.3861 25.5194C30.6843 23.4401 32.1282 20.5812 32.4375 17.4975H7.5625C7.8718 20.5812 9.31565 23.4401 11.6139 25.5194C13.9121 27.5986 16.9008 28.75 20 28.75ZM15 35.0025H25C25.3315 35.0025 25.6495 35.1342 25.8839 35.3686C26.1183 35.603 26.25 35.921 26.25 36.2525C26.25 36.584 26.1183 36.902 25.8839 37.1364C25.6495 37.3708 25.3315 37.5025 25 37.5025H15C14.6685 37.5025 14.3505 37.3708 14.1161 37.1364C13.8817 36.902 13.75 36.584 13.75 36.2525C13.75 35.921 13.8817 35.603 14.1161 35.3686C14.3505 35.1342 14.6685 35.0025 15 35.0025Z" fill="black"/>
</svg>
