<svg width="40" height="40" viewBox="0 0 40 40" fill="none" xmlns="http://www.w3.org/2000/svg">
<path d="M28.75 13.0175L32.5 9.2675L30.7325 7.5L26.6162 11.6163C26.3818 11.8506 26.25 12.1685 26.25 12.5V17.5H17.4075L18.8362 37.5H29.9137L31.3425 17.5H28.75V13.0175ZM27.5875 35H21.1625L20.0925 20H28.6575L27.5875 35Z" fill="black"/>
<path d="M18.75 1.25H12.5C12.1685 1.25 11.8505 1.3817 11.6161 1.61612C11.3817 1.85054 11.25 2.16848 11.25 2.5V11.7125C9.91625 12.47 7.5 14.435 7.5 18.75V36.25C7.5 36.5815 7.6317 36.8995 7.86612 37.1339C8.10054 37.3683 8.41848 37.5 8.75 37.5H15V35H10V18.75C10 14.0575 13.75 13.4 13.75 13.4V3.75H17.5V12.5H20V2.5C20 2.16848 19.8683 1.85054 19.6339 1.61612C19.3995 1.3817 19.0815 1.25 18.75 1.25Z" fill="black"/>
</svg>
