<svg width="40" height="40" viewBox="0 0 40 40" fill="none" xmlns="http://www.w3.org/2000/svg">
<g clip-path="url(#clip0_95_844)">
<path d="M2.50001 15.4125C2.50001 7.58375 9.64237 1.25 18.436 1.25H25.764C34.5717 1.25 41.7 7.585 41.7 15.4125C41.6999 15.4935 41.691 15.5743 41.6733 15.6537L41.6747 15.6913L41.3793 16.8387C40.2991 21.0312 36.8222 34.5263 36.5634 35.62C36.1119 37.5275 34.1723 38.875 31.9949 38.875H12.2191C11.1582 38.8762 10.1283 38.5566 9.29881 37.9687C8.46933 37.3808 7.88961 36.5595 7.65494 35.64L2.59143 15.8588C2.53053 15.7162 2.49954 15.565 2.50001 15.4125ZM11.3626 14.32C11.946 14.4986 12.4647 14.8135 12.8641 15.2316C13.2636 15.6497 13.529 16.1556 13.6327 16.6963C13.9613 18.3433 14.8882 19.8493 16.2713 20.9838L14.9309 10.105L14.6384 8.55C14.5851 8.27864 14.4132 8.03701 14.1603 7.87779C13.9073 7.71856 13.5938 7.65466 13.2881 7.7L10.2078 8.1625L11.3626 14.32ZM17.8115 21.9913C19.1629 22.6858 20.7024 23.0385 22.2632 23.0113L20.6302 9.775C20.6139 9.63863 20.5674 9.50647 20.4935 9.3861C20.4196 9.26573 20.3197 9.15952 20.1994 9.07357C20.0792 8.98762 19.941 8.92363 19.7929 8.88526C19.6447 8.84689 19.4895 8.83491 19.3362 8.85L16.2277 9.15L17.8115 21.9913ZM24.3631 22.7463C25.9164 22.3709 27.3199 21.6156 28.4139 20.5662L30.0117 9.6875C30.0384 9.50307 30.1202 9.32836 30.2486 9.18152C30.377 9.03468 30.5472 8.92107 30.7417 8.8525L30.7713 8.65C30.8101 8.37517 30.7256 8.09779 30.5361 7.87789C30.3466 7.65799 30.0673 7.51326 29.7586 7.475L26.6642 7.1125L24.3631 22.7463ZM30.9724 15.7175C31.2646 15.2464 31.6938 14.8535 32.215 14.58C32.7363 14.3065 33.3306 14.1623 33.936 14.1625H35.0134L35.5338 14.1613L36.0879 10.3875C36.1087 10.2512 36.0989 10.1126 36.0592 9.97966C36.0195 9.84673 35.9506 9.72208 35.8565 9.61289C35.7624 9.5037 35.6449 9.41211 35.5108 9.3434C35.3768 9.27469 35.2287 9.2302 35.0752 9.2125L31.9809 8.85L31.9795 8.8625L30.9724 15.7175ZM23.124 18.525L24.1043 11.8613V5.55C24.1058 5.41338 24.0766 5.27787 24.0185 5.15139C23.9604 5.02491 23.8744 4.91001 23.7657 4.8134C23.657 4.71679 23.5277 4.64042 23.3854 4.58875C23.2431 4.53709 23.0906 4.51116 22.9369 4.5125H19.8144V7.615C20.9621 7.7525 21.8961 8.56875 22.0283 9.63875L23.1254 18.5263L23.124 18.525ZM33.936 16.6625C33.7923 16.665 33.6545 16.7131 33.5474 16.7982C33.4403 16.8833 33.3711 16.9997 33.3522 17.1263V17.13C32.4056 21.89 27.7402 25.5125 22.107 25.5125C16.4739 25.5125 11.8084 21.89 10.8618 17.13V17.125C10.843 16.9984 10.7738 16.8821 10.6667 16.797C10.5596 16.7119 10.4217 16.6637 10.2781 16.6613H5.68298L10.3977 35.0837C10.5904 35.8375 11.34 36.3738 12.2191 36.3738H31.9949C32.8853 36.3738 33.642 35.8163 33.8122 35.1038C34.0696 34.0175 37.3637 21.2238 38.5395 16.6575H37.3721L35.0204 16.66L33.936 16.6625Z" fill="black"/>
</g>
<defs>
<clipPath id="clip0_95_844">
<rect width="40" height="40" fill="white"/>
</clipPath>
</defs>
</svg>
